SplineFontDB: 1.0
FontName: Hinting
FullName: Hinting
FamilyName: Hinting
Weight: Medium
Copyright: Created by alexios with FontForge 1.0 (http://fontforge.sf.net)
Comments: 2006-2-13: Created.
Version: 001.000
ItalicAngle: 0
UnderlinePosition: -100
UnderlineWidth: 50
Ascent: 800
Descent: 200
NeedsXUIDChange: 1
XUID: [1021 675 718133685 8956482]
FSType: 0
CreationTime: 1153610591
ModificationTime: 1156114340
OS2TypoAscent: 0
OS2TypoAOffset: 1
OS2TypoDescent: 0
OS2TypoDOffset: 1
OS2TypoLinegap: 90
OS2WinAscent: 0
OS2WinAOffset: 1
OS2WinDescent: 0
OS2WinDOffset: 1
HheadAscent: 0
HheadAOffset: 1
HheadDescent: 0
HheadDOffset: 1
OS2Vendor: 'PfEd'
ScriptLang: 1
 1 hebr 1 dflt 
Encoding: Custom
UnicodeInterp: none
NameList: Adobe Glyph List
DisplaySize: -48
AntiAlias: 1
FitToEm: 1
WinInfo: 0 16 4
BeginPrivate: 1
BlueValues 31 [-16 0 394 408 660 676 715 715]
EndPrivate
BeginChars: 43 43
StartChar: afii10095
Encoding: 1 1101 1
Width: 428
Flags: W
TeX: 117 0 0 0
HStem: -12 24<151 251> 224 28<100 292> 444 24<170 257>
VStem: 34 46<54.5 127.5> 46 18<298 462> 292 88<108 300>
Fore
292 252 m 17xf4
 292 300 l 2
 292 396 260 444 194 444 c 0
 146 444 72 378 64 298 c 9
 46 298 l 25
 46 462 l 25
 64 462 l 17xec
 64 446 71 428 88 428 c 0
 98 428 103 432 108 436 c 0
 118 443 159 468 194 468 c 0
 320 468 380 360 380 228 c 0
 380 96 314 -12 188 -12 c 0
 114 -12 34 22 34 115 c 0
 34 140 50 176 86 176 c 0
 118 176 132 155 132 131 c 0
 132 112 120 97 100 93 c 0
 86 90 80 87 80 75 c 0
 80 34 134 12 188 12 c 0
 252 12 292 60 292 156 c 2
 292 224 l 9
 100 224 l 25
 100 252 l 25
 292 252 l 17xf4
EndSplineSet
Ligature: 1 0 'liga' uniFFFF uniFFFF
LCarets: 0 65535 '    ' 1 0 
EndChar
StartChar: afii10026
Encoding: 2 1048 2
Width: 750
VWidth: 1039
Flags: W
TeX: 117 0 0 0
HStem: 0 32<42 332 418 708> 680 32<42 332 418 708>
VStem: 141 92<50 662.5> 517 92<50 662.5>
Fore
141 59 m 2
 141 653 l 2
 141 672 133 680 114 680 c 2
 42 680 l 1
 42 712 l 1
 332 712 l 1
 332 680 l 1
 260 680 l 2
 241 680 233 672 233 653 c 2
 233 150 l 1
 517 620 l 1
 517 653 l 2
 517 672 509 680 490 680 c 2
 418 680 l 1
 418 712 l 1
 708 712 l 1
 708 680 l 1
 636 680 l 2
 618 680 609 672 609 653 c 2
 609 59 l 2
 609 41 618 32 636 32 c 2
 708 32 l 1
 708 0 l 1
 418 0 l 1
 418 32 l 1
 490 32 l 2
 509 32 517 41 517 59 c 2
 517 562 l 1
 233 92 l 1
 233 59 l 2
 233 41 241 32 260 32 c 2
 332 32 l 1
 332 0 l 1
 42 0 l 1
 42 32 l 1
 114 32 l 2
 133 32 141 41 141 59 c 2
EndSplineSet
Ligature: 1 0 'liga' uniFFFF uniFFFF
LCarets: 0 65535 '    ' 1 0 
EndChar
StartChar: uni0306
Encoding: 3 774 3
Width: 440
Flags: W
TeX: 117 0 0 0
HStem: 742 30<156 284> 858 94<70 125 315 370>
VStem: 26 66<817 896.5> 348 66<817 896.5>
Fore
112 858 m 0
 89 858 92 848 92 839 c 0
 92 795 137 772 220 772 c 4
 303 772 348 795 348 839 c 0
 348 852 348 858 328 858 c 0
 302 858 291 880 291 901 c 0
 291 927 312 952 346 952 c 0
 394 952 414 913 414 880 c 0
 414 816 348 742 220 742 c 0
 92 742 26 816 26 880 c 0
 26 913 46 952 94 952 c 0
 128 952 149 927 149 901 c 0
 149 880 138 858 112 858 c 0
EndSplineSet
Ligature: 1 0 'liga' uniFFFF uniFFFF
LCarets: 0 65535 '    ' 1 0 
EndChar
StartChar: I
Encoding: 5 73 5
Width: 383
VWidth: 1039
Flags: W
TeX: 117 0 0 0
HStem: 0 32<42 341> 680 32<42 341>
VStem: 141 101<50 662.5>
Fore
141 59 m 10
 141 653 l 18
 141 672 133 680 114 680 c 10
 42 680 l 25
 42 712 l 25
 341 712 l 25
 341 680 l 25
 269 680 l 18
 250 680 242 672 242 653 c 10
 242 59 l 18
 242 41 250 32 269 32 c 10
 341 32 l 25
 341 0 l 25
 42 0 l 25
 42 32 l 25
 114 32 l 18
 133 32 141 41 141 59 c 10
EndSplineSet
Ligature: 1 0 'liga' uniFFFF uniFFFF
LCarets: 0 65535 '    ' 1 0 
EndChar
StartChar: a
Encoding: 6 97 6
Width: 389
Flags: W
TeX: 0 0 0 0
HStem: -15 52<114 211.5> 266 54<343 381.5> 278 42<118 178.5>
VStem: 30 40<93.5 193.5> 295 50<76 246>
Fore
295 131 m 1xd8
 266 66 243 -15 146 -15 c 0
 82 -15 30 48 30 139 c 0
 30 248 136 320 166 320 c 4
 191 320 220 297 220 282 c 4
 220 267 187 245 182 245 c 4
 173 245 161 278 136 278 c 4xb8
 100 278 70 219 70 168 c 0
 70 96 100 37 177 37 c 0
 246 37 295 141 295 226 c 0
 295 266 323 320 363 320 c 0
 381 320 392 291 392 279 c 0
 392 265 386 266 377 266 c 0
 350 266 345 227 345 127 c 0
 345 25 351 23 368 -9 c 1
 368 -13 366 -15 362 -15 c 1
 292 25 295 52 295 131 c 1xd8
EndSplineSet
EndChar
StartChar: C
Encoding: 7 67 7
Width: 389
Flags: W
TeX: 0 0 0 0
HStem: -15 52<137 245.5> 518 52<205 319>
VStem: 30 45<154.5 303> 320 40<104.5 161>
Fore
30 210 m 0
 30 276 52 342 70 384 c 0
 99 451 198 570 292 570 c 0
 346 570 369 519 369 478 c 0
 369 452 333 443 330 443 c 0
 318 443 348 518 267 518 c 0
 143 518 75 374 75 232 c 0
 75 118 128 37 216 37 c 0
 275 37 320 90 320 119 c 4
 320 146 278 134 278 149 c 4
 278 163 315 206 326 206 c 4
 344 206 360 172 360 150 c 4
 360 99 271 -15 186 -15 c 0
 88 -15 30 99 30 210 c 0
EndSplineSet
EndChar
StartChar: n
Encoding: 8 110 8
Width: 389
Flags: W
TeX: 0 0 0 0
HStem: -15 42<210.5 284.5> 268 52<169.5 276>
VStem: 45 50<74 267.5> 320 40<119 214.5>
Fore
95 232 m 1
 125 264 172 320 234 320 c 0
 318 320 360 253 360 176 c 0
 360 85 307 -15 232 -15 c 4
 189 -15 166 20 166 25 c 4
 166 32 198 57 208 57 c 4
 217 57 231 27 262 27 c 4
 307 27 320 93 320 145 c 0
 320 218 271 268 206 268 c 0
 133 268 99 218 95 196 c 1
 91 164 95 142 95 142 c 2
 95 59 100 26 28 -15 c 1
 24 -15 22 -13 22 -9 c 1
 41 27 45 28 45 120 c 0
 45 130 45 246 41 256 c 0
 35 270 18 268 18 276 c 0
 18 283 39 320 59 320 c 0
 84 320 95 303 95 232 c 1
EndSplineSet
EndChar
StartChar: q
Encoding: 9 113 9
Width: 389
Flags: W
TeX: 0 0 0 0
HStem: 0 50<178 218.5> 264 56<344.5 381.5> 268 52<120.5 217>
VStem: 30 40<126 214> 295 50<-219 199>
Fore
295 38 m 1xb8
 295 199 l 1
 292 221 250 268 184 268 c 4
 119 268 70 218 70 145 c 0
 70 107 77 65 99 43 c 1
 129 47 185 50 196 50 c 0
 241 50 286 43 295 38 c 1xb8
295 -15 m 1
 260 -6 229 0 198 0 c 0
 158 0 119 -8 74 -8 c 0
 50 -8 26 7 2 34 c 0
 -5 41 -8 51 -8 54 c 0
 -8 56 -6 57 -3 57 c 0
 8 55 30 39 60 42 c 1
 41 89 30 130 30 174 c 0
 30 254 79 320 162 320 c 5xb8
 225 319 274 267 295 235 c 1
 299 273 326 320 363 320 c 0
 381 320 392 290 392 278 c 0
 392 264 386 264 377 264 c 0xd8
 350 264 345 227 345 127 c 2
 345 -199 l 2
 345 -283 350 -316 278 -357 c 1
 274 -357 272 -355 272 -351 c 1
 291 -315 295 -312 295 -219 c 2
 295 -15 l 1
EndSplineSet
EndChar
StartChar: B
Encoding: 10 66 10
Width: 605
Flags: W
TeX: 0 0 0 0
HStem: -3 31<277.5 382> 339 30<241 347.5> 632 31<216.5 308>
VStem: 128 82<97.5 609> 419 88<450 546> 467 91<118 244.5>
Fore
558 191 m 0xf4
 558 75 472 -3 292 -3 c 0
 263 -3 214 0 172 0 c 0
 128 0 94 -2 57 -3 c 1
 51 0 49 16 55 22 c 1
 73 25 l 2
 126 33 128 45 128 150 c 2
 128 530 l 2
 128 604 124 622 79 627 c 2
 47 630 l 1
 39 636 40 651 48 655 c 1
 102 660 170 663 263 663 c 0
 326 663 386 658 431 635 c 0
 474 614 507 574 507 510 c 0xf8
 507 438 465 401 405 373 c 1
 405 363 413 360 424 358 c 0
 478 348 558 298 558 191 c 0xf4
419 497 m 4
 419 595 346 632 270 632 c 0
 248 632 233 630 224 626 c 0
 214 623 210 618 210 600 c 2
 210 397 l 2
 210 369 211 367 262 369 c 0
 364 373 419 403 419 497 c 4
467 168 m 0xf4
 467 247 427 339 268 339 c 0
 214 339 210 333 210 313 c 2
 210 165 l 2
 210 129 212 78 231 56 c 0
 250 33 280 28 310 28 c 0
 399 28 467 68 467 168 c 0xf4
EndSplineSet
EndChar
StartChar: Aring
Encoding: 11 197 11
Width: 623
Flags: W
TeX: 0 0 0 0
HStem: -3 25<-22 -20 180 182 400 402 638 638> 257 40<215 381> 676 21G<304 334.5> 800 33<289.5 348.5>
VStem: 219 47<717.5 763> 372 47<718 763>
Fore
638 -3 m 1
 597 -1 562 0 517 0 c 0
 469 0 431 -2 402 -3 c 1
 394 1 393 17 400 22 c 1
 429 25 l 2
 450 27 464 33 464 43 c 0
 464 54 459 72 451 96 c 2
 407 232 l 2
 400 254 396 257 366 257 c 2
 215 257 l 2
 190 257 184 254 177 233 c 2
 142 128 l 2
 127 83 120 56 120 45 c 0
 120 33 125 27 149 25 c 2
 182 22 l 1
 189 17 189 1 180 -3 c 1
 154 -1 123 -1 76 0 c 0
 43 0 7 -2 -20 -3 c 1
 -26 1 -28 17 -22 22 c 1
 11 25 l 2
 35 27 57 38 71 74 c 0
 89 120 117 185 159 297 c 2
 261 567 l 2
 274 600 281 618 290 647 c 1
 247 659 219 697 219 738 c 0
 219 788 260 833 319 833 c 0
 378 833 419 788 419 738 c 0
 419 698 392 661 350 648 c 1
 361 613 376 572 389 533 c 2
 526 131 l 2
 555 45 568 30 611 25 c 2
 638 22 l 1
 645 17 643 1 638 -3 c 1
372 738 m 0
 372 773 350 800 319 800 c 0
 289 800 266 773 266 738 c 0
 266 702 289 676 319 676 c 4
 350 676 372 702 372 738 c 0
375 328 m 2
 321 491 l 2
 313 515 304 542 298 554 c 1
 296 554 l 1
 293 549 283 525 272 495 c 2
 209 321 l 2
 201 298 202 297 230 297 c 2
 353 297 l 2
 382 297 384 301 375 328 c 2
EndSplineSet
EndChar
StartChar: Ugrave
Encoding: 12 217 12
Width: 746
Flags: W
TeX: 0 0 0 0
HStem: -16 44<328.5 477.5> 639 24<35 37 284 286 511 513 732 734>
VStem: 120 82<214.5 511> 605 41<294 440>
Fore
734 639 m 1
 710 637 l 2
 685 635 665 626 660 613 c 0
 645 580 646 465 646 409 c 2
 646 296 l 2
 646 209 632 117 576 57 c 0
 533 10 459 -16 385 -16 c 0
 316 -16 247 -3 198 39 c 0
 145 83 120 156 120 275 c 2
 120 511 l 2
 120 615 118 632 60 637 c 2
 35 639 l 1
 29 643 31 660 37 663 c 5
 87 661 121 660 161 660 c 4
 202 660 235 661 284 663 c 5
 290 660 292 643 286 639 c 1
 262 637 l 2
 204 632 202 615 202 511 c 2
 202 295 l 2
 202 134 252 28 405 28 c 0
 550 28 605 142 605 294 c 2
 605 409 l 2
 605 471 603 586 586 616 c 0
 579 628 561 635 536 637 c 2
 511 639 l 1
 505 646 507 659 513 663 c 5
 551 661 588 660 627 660 c 4
 669 660 696 661 732 663 c 5
 740 658 739 645 734 639 c 1
408 719 m 1
 411 712 407 706 401 704 c 1
 247 771 l 2
 235 776 228 780 225 786 c 0
 222 791 224 801 231 812 c 0
 237 823 247 831 253 831 c 0
 259 831 266 828 276 820 c 2
 408 719 l 1
EndSplineSet
EndChar
StartChar: U
Encoding: 13 85 13
Width: 746
Flags: W
TeX: 0 0 0 0
HStem: -16 44<328.5 477.5> 639 24<35 37 284 286 511 513 732 734>
VStem: 120 82<214.5 511> 605 41<294 440>
Fore
734 639 m 1
 710 637 l 2
 685 635 665 626 660 613 c 0
 645 580 646 465 646 409 c 2
 646 296 l 2
 646 209 632 117 576 57 c 0
 533 10 459 -16 385 -16 c 0
 316 -16 247 -3 198 39 c 0
 145 83 120 156 120 275 c 2
 120 511 l 2
 120 615 118 632 60 637 c 2
 35 639 l 1
 29 643 31 660 37 663 c 5
 87 661 121 660 161 660 c 4
 202 660 235 661 284 663 c 5
 290 660 292 643 286 639 c 1
 262 637 l 2
 204 632 202 615 202 511 c 2
 202 295 l 2
 202 134 252 28 405 28 c 0
 550 28 605 142 605 294 c 2
 605 409 l 2
 605 471 603 586 586 616 c 0
 579 628 561 635 536 637 c 2
 511 639 l 1
 505 646 507 659 513 663 c 5
 551 661 588 660 627 660 c 4
 669 660 696 661 732 663 c 5
 740 658 739 645 734 639 c 1
EndSplineSet
EndChar
StartChar: dieresis
Encoding: 14 168 14
Width: 360
Flags: W
TeX: 0 0 0 0
HStem: 483 94<73 100.5 261 288.5>
VStem: 40 93<514 543.5> 227 93<514 543.5>
Fore
320 532 m 0
 320 503 302 483 275 483 c 0
 248 483 227 499 227 529 c 0
 226 556 247 577 275 577 c 0
 302 577 320 555 320 532 c 0
133 532 m 0
 133 503 114 483 87 483 c 4
 60 483 40 499 40 529 c 0
 40 556 59 577 87 577 c 0
 114 577 133 555 133 532 c 0
EndSplineSet
EndChar
StartChar: periodcentered
Encoding: 15 183 15
Width: 250
Flags: W
TeX: 0 0 0 0
HStem: 148 114<109 142>
VStem: 69 112<186 220>
Fore
181 203 m 0
 181 171 159 148 125 148 c 0
 96 148 69 169 69 203 c 0
 69 237 93 262 125 262 c 0
 159 262 181 235 181 203 c 0
EndSplineSet
EndChar
StartChar: period
Encoding: 16 46 16
Width: 250
Flags: W
TeX: 0 0 0 0
HStem: -14 114<109 142>
VStem: 69 112<24 58>
Fore
181 41 m 0
 181 9 159 -14 125 -14 c 4
 96 -14 69 7 69 41 c 0
 69 75 93 100 125 100 c 0
 159 100 181 73 181 41 c 0
EndSplineSet
EndChar
StartChar: colon
Encoding: 17 58 17
Width: 250
Flags: W
TeX: 0 0 0 0
HStem: -14 114<109 142> 280 114<109 142>
VStem: 69 112<24 58 318 352>
Fore
181 335 m 0
 181 303 159 280 125 280 c 0
 96 280 69 301 69 335 c 0
 69 369 93 394 125 394 c 0
 159 394 181 367 181 335 c 0
181 41 m 0
 181 9 159 -14 125 -14 c 4
 96 -14 69 7 69 41 c 0
 69 75 93 100 125 100 c 0
 159 100 181 73 181 41 c 0
EndSplineSet
EndChar
StartChar: tilde
Encoding: 18 732 18
Width: 0
Flags: W
TeX: 0 0 0 0
HStem: 499 45<-162.5 -113> 524 45<-286.5 -228.5>
Fore
-364 496 m 1x40
 -346 529 -312 569 -261 569 c 0x40
 -196 569 -173 544 -134 544 c 0
 -101 544 -73 553 -49 566 c 1
 -73 521 -99 499 -127 499 c 0x80
 -198 499 -212 524 -273 524 c 0
 -289 524 -319 512 -364 496 c 1x40
EndSplineSet
EndChar
StartChar: asciitilde
Encoding: 19 126 19
Width: 0
Flags: W
TeX: 0 0 0 0
HStem: 489 45<-208 -110.5> 524 45<-413 -326.5>
Fore
-549 498 m 1x40
 -503 535 -445 569 -372 569 c 0x40
 -281 569 -208 534 -129 534 c 0
 -92 534 -53 548 -22 563 c 1
 -55 516 -86 489 -170 489 c 0x80
 -246 489 -306 524 -382 524 c 0
 -444 524 -479 514 -549 498 c 1x40
EndSplineSet
EndChar
StartChar: d
Encoding: 20 100 20
Width: 429
Flags: W
TeX: 0 0 0 0
HStem: -15 52<132.5 231 438.5 476.5> -8 52<345.5 389> 273 47<141 216.5> 566 54<333 381.5>
VStem: 30 40<93.5 202.5> 295 50<37 475>
Fore
295 290 m 1xbc
 297 415 295 444 295 444 c 6
 296 539 303 620 363 620 c 0
 381 620 392 591 392 579 c 0
 392 565 386 566 377 566 c 0
 358 566 345 525 345 425 c 2
 345 37 l 1xbc
 347 42 364 44 375 44 c 0x7c
 403 44 437 37 463 37 c 0
 490 37 503 47 509 47 c 0
 511 47 513 45 513 43 c 0
 513 30 488 -15 452 -15 c 0xbc
 425 -15 405 -8 357 -8 c 0x7c
 334 -8 317 -15 312 -15 c 0
 300 -15 295 -7 295 8 c 2
 295 25 l 1
 267 2 225 -15 175 -15 c 0
 90 -15 30 49 30 138 c 0
 30 241 110 320 195 320 c 0
 238 320 270 309 295 290 c 1xbc
295 72 m 1
 295 211 l 1
 280 235 237 273 176 273 c 0
 106 273 70 237 70 168 c 0
 70 92 118 37 202 37 c 0
 260 37 280 57 295 72 c 1
EndSplineSet
EndChar
StartChar: acute
Encoding: 21 180 21
Width: 0
Flags: W
TeX: 0 0 0 0
HStem: 640 20G<-225 -211.5>
Fore
-372 510 m 0
 -372 517 -234 660 -216 660 c 0
 -207 660 -206 655 -206 647 c 0
 -206 632 -364 506 -368 506 c 0
 -370 506 -371 508 -372 510 c 0
EndSplineSet
EndChar
StartChar: uni035B
Encoding: 22 859 22
Width: 0
Flags: W
TeX: 0 0 0 0
HStem: 520 45<-131 -51>
VStem: -160 27<560 604> -16 31<474.5 552>
Fore
-160 560 m 0
 -160 585 -145 607 -130 620 c 1
 -132 612 -133 606 -133 602 c 0
 -133 583 -118 565 -101 565 c 2
 -76 565 l 2
 -26 565 15 569 15 535 c 0
 15 476 -20 411 -49 395 c 1
 -39 410 -16 459 -16 490 c 0
 -16 517 -26 520 -76 520 c 2
 -131 520 l 2
 -156 520 -161 534 -160 560 c 0
EndSplineSet
EndChar
StartChar: paragraph
Encoding: 23 182 23
Width: 554
Flags: W
TeX: 0 0 0 0
HStem: 257 41<199.443 267> 589 41<183.753 282.8>
VStem: 24 81<369.568 497.7> 289 58<260 586> 386 58<-74 566>
Fore
366 -86 m 5
 376.423 -82.5257 386 -77 386 -71 c 6
 386 566 l 5
 370.477 570.657 362.523 572.343 347 577 c 5
 347 -71 l 6
 347 -74 348.759 -79.103 366 -86 c 5
105 458 m 4
 105 407.669 137.4 298 267 298 c 6
 289 298 l 5
 289 586 l 5
 269 588 252.333 589 239 589 c 4
 168.016 589 105 536.6 105 458 c 4
444 -71 m 6
 444 -77 458.717 -90.0561 515 -101 c 5
 515 -122 l 5
 217 -122 l 5
 217 -101 l 5
 246.613 -94.7184 288 -83 288 -71 c 6
 289 260 l 5
 280.677 258.151 271.8 257 246 257 c 4
 152.887 257 24 298.136 24 441 c 4
 24 554.4 119.506 630 248 630 c 4
 317.6 630 480 615 480 615 c 5
 515 615 l 5
 515 594 l 5
 485.387 587.718 444 576 444 564 c 6
 444 -71 l 6
EndSplineSet
EndChar
StartChar: paragraph.ttf
Encoding: 24 -1 24
Width: 603
VWidth: 2048
Flags: W
TeX: 0 0 0 0
HStem: 257 41<246 269> 589 41<229 252.5 277.5 285>
VStem: 24 81<425.5 467> 289 58<-73 586> 386 58<-71 566>
Fore
386 566 m 1
 380 568 373 570 366 571 c 0
 357 574 357 574 347 576 c 1
 347 -71 l 2
 347 -74 349 -78 354 -80 c 0
 359 -83 363 -85 366 -86 c 1
 370 -85 374 -83 379 -80 c 0
 384 -78 386 -74 386 -71 c 2
 386 566 l 1
288 298 m 5
 289 586 l 1
 269 588 252 589 239 589 c 0
 219 589 201 585 185 578 c 0
 169 571 155 562 143 550 c 0
 131 539 122 525 115 509 c 0
 108 493 105 476 105 458 c 0
 105 440 108 422 114 403 c 0
 120 384 130 367 143 351 c 0
 156 336 173 323 193 313 c 0
 214 303 238 298 267 298 c 2
 288 298 l 5
217 -122 m 1
 217 -101 l 1
 239 -96 257 -91 269 -86 c 0
 282 -80 288 -75 288 -71 c 2
 288 260 l 1
 283 259 276 258 269 257 c 0
 263 257 255 257 246 257 c 0
 216 257 187 261 160 268 c 0
 133 276 110 287 90 303 c 0
 69 318 53 337 41 360 c 0
 30 383 24 410 24 441 c 0
 24 468 29 494 40 517 c 0
 51 540 67 560 86 577 c 0
 106 593 130 606 157 616 c 0
 185 625 215 630 248 630 c 0
 257 630 270 629 285 629 c 0
 300 628 316 627 333 626 c 0
 351 625 368 624 385 622 c 0
 411 620 411 620 432 619 c 0
 446 617 458 617 467 616 c 0
 475 615 479 615 480 615 c 2
 515 615 l 1
 515 594 l 1
 493 589 475 584 463 579 c 0
 450 573 444 568 444 564 c 2
 444 -71 l 2
 444 -75 450 -80 461 -86 c 0
 473 -91 491 -96 515 -101 c 1
 515 -122 l 1
 217 -122 l 1
EndSplineSet
EndChar
StartChar: NameMe-25
Encoding: 25 -1 25
Width: 609
Flags: W
TeX: 0 0 0 0
HStem: -15 52<114 192.5 344 428.5> 278 42<338 398.5> 570 50<489.5 577.5>
VStem: 30 40<93.5 202> 250 40<130.5 193.5> 515 50<75.5 488>
Fore
515 131 m 1
 486 66 463 -15 366 -15 c 0
 322 -15 283 15 264 63 c 1
 241 20 210 -15 146 -15 c 0
 82 -15 30 48 30 139 c 0
 30 251 172 393 225 441 c 0
 298 508 397 580 490 610 c 0
 521 620 551 620 570 620 c 0
 585 620 595 617 595 611 c 1
 595 601 581 595 581 590 c 2
 570 573 565 525 565 425 c 10
 565 127 l 2
 565 24 570 23 587 -9 c 1
 587 -13 585 -15 581 -15 c 1
 511 25 515 52 515 131 c 1
515 226 m 2
 515 443 l 2
 515 533 515 527 522 561 c 0
 523 569 519 570 493 570 c 0
 486 570 478 569 470 566 c 0
 342 526 222 412 149 327 c 0
 113 285 70 236 70 168 c 0
 70 96 101 37 176 37 c 0
 209 37 236 60 255 91 c 1
 252 106 250 122 250 139 c 0
 250 248 356 320 386 320 c 0
 411 320 440 297 440 282 c 0
 440 267 407 245 402 245 c 0
 393 245 381 278 356 278 c 0
 320 278 290 219 290 168 c 0
 290 96 321 37 394 37 c 0
 463 37 515 141 515 226 c 2
EndSplineSet
EndChar
StartChar: NameMe-26
Encoding: 26 -1 26
Width: 609
Flags: W
TeX: 0 0 0 0
HStem: -164 41<499 555.5> -15 50<414 479.5> -5 50<531.5 567.5> 0 50<150.5 231> 268 52<171.5 259.5 411 498>
VStem: 45 50<77.5 267.5> 320 40<127.5 187> 540 40<126 214.5> 586 35<-82.5 -14.5>
Fore
89 34 m 5xaf80
 125 46 169 50 221 50 c 4x9f80
 241 50 268 48 297 45 c 5
 314 69 320 110 320 145 c 4
 320 218 271 268 206 268 c 4
 137 268 99 221 95 199 c 5
 91 167 98 67 89 34 c 5xaf80
95 232 m 5
 125 264 173 320 234 320 c 4
 285 320 321 295 341 258 c 5
 370 287 409 320 456 320 c 4
 540 320 580 253 580 176 c 4
 580 130 566 82 543 45 c 5
 592 45 621 14 621 -43 c 4
 621 -97 571 -164 514 -164 c 4
 484 -164 474 -153 474 -139 c 4
 474 -117 499 -88 503 -88 c 4
 514 -88 515 -123 541 -123 c 4
 570 -123 586 -97 586 -68 c 4
 586 -39 568 -5 540 -5 c 4xaf80
 523 -5 507 -15 452 -15 c 4xcf80
 376 -15 259 0 178 0 c 4
 123 0 82 -5 31 -22 c 5
 29 -22 28 -20 27 -18 c 5
 45 32 45 35 45 120 c 4
 45 130 45 246 41 256 c 4
 35 270 18 268 18 276 c 4
 18 283 40 320 60 320 c 4
 85 320 95 303 95 232 c 5
322 43 m 5
 365 39 409 35 437 35 c 4xcf80
 464 35 489 37 512 41 c 5
 533 63 540 107 540 145 c 4
 540 218 493 268 428 268 c 4
 394 268 368 255 349 239 c 5
 356 220 360 198 360 176 c 4
 360 129 346 80 322 43 c 5
EndSplineSet
EndChar
StartChar: G
Encoding: 27 71 27
Width: 747
Flags: W
TeX: 0 0 0 0
HStem: -16 31<345.5 477> 244 25<457 457 706 707> 646 30<328 481.5>
VStem: 46 100<262 433> 566 82<102 184>
Fore
707 244 m 5
 691 242 l 6
 649 237 648 209 648 158 c 6
 648 102 l 6
 648 62 654 38 672 31 c 5
 675 28 675 22 671 19 c 5
 659 19 641 15 622 10 c 4
 569 -4 497 -16 443 -16 c 4
 324 -16 215 17 138 95 c 4
 78 155 46 234 46 322 c 4
 46 407 74 493 136 559 c 4
 203 629 302 676 453 676 c 4
 510 676 563 665 580 661 c 4
 599 657 630 650 642 652 c 5
 642 619 648 567 657 507 c 5
 654 499 636 498 630 504 c 5
 602 612 527 646 425 646 c 4
 231 646 146 508 146 358 c 4
 146 166 245 15 446 15 c 4
 508 15 545 28 556 45 c 4
 561 52 566 70 566 102 c 6
 566 142 l 6
 566 226 563 232 501 239 c 6
 457 244 l 5
 449 248 450 266 457 269 c 5
 486 267 541 266 600 266 c 4
 639 266 673 267 706 269 c 5
 713 265 714 250 707 244 c 5
EndSplineSet
EndChar
StartChar: k
Encoding: 28 107 28
Width: 528
Flags: W
TeX: 0 0 0 0
HStem: -7.39098e-06 30.9091<27 89.252 190.568 247 315.182 337.846 464.565 510.636> 399.545 30.91<453.55 488.364> 652.273 30.909<29.3189 53.4524>
VStem: 104.727 67.273<50.7982 182.164 215 632.341>
Fore
27 683.182 m 1
 172 694.091 l 1
 172 215 l 1
 203.657 243.037 235.924 270.399 267.909 298.059 c 2
 295.636 322.016 l 2
 302.647 328.08 309.809 334.05 316.297 340.682 c 0
 325.774 350.368 333.929 361.818 333.61 375.898 c 0
 333.558 378.182 332.764 380.438 332 382.602 c 0
 331.066 385.406 329.099 387.721 327.221 389.938 c 0
 325.317 392.185 322.622 393.949 320.055 395.335 c 0
 315.543 397.727 310.615 398.636 305.636 399.546 c 1
 305.636 430.455 l 1
 382.909 428.104 l 1
 443.818 427.891 l 1
 488.364 430.455 l 5
 488.364 399.545 l 1
 477.455 399.05 466.728 397.96 456.091 395.416 c 0
 411.279 384.697 374.37 355.909 340.182 326.454 c 0
 320.069 309.091 300.166 291.505 279.727 274.545 c 1
 292.712 255.152 306.515 236.297 320.033 217.273 c 2
 387.221 122.727 l 2
 399.896 104.885 412.132 86.5536 425.927 69.5454 c 0
 435.948 57.1941 447.294 44.9654 462 38.1818 c 0
 477.166 31.3336 494.272 31.0441 510.636 30.9091 c 1
 510.636 -7.39098e-06 l 1
 489.441 1.27227 468.234 2.27272 447 2.65272 c 0
 403.051 3.34408 359.082 1.93227 315.182 -7.62939e-06 c 1
 315.182 30.9091 l 1
 321.091 31.2864 327.188 31.5482 332.883 33.4327 c 0
 335.636 34.3691 338.727 35.5959 341.048 37.5186 c 0
 343.012 39.0909 345.17 40.8791 346.416 43.1686 c 0
 347.455 45.2054 348.763 47.2577 349.125 49.5454 c 0
 351.326 63.8364 343 76.8182 335.398 88.1818 c 0
 327.246 100.347 318.538 112.156 310.056 124.091 c 2
 263.818 189.091 l 2
 253.47 203.73 242.909 218.276 232.909 233.182 c 1
 219.101 222.122 205.833 210.405 192.455 198.832 c 0
 188.364 195.326 184.273 191.818 180.383 188.182 c 0
 177.154 185.139 173.943 181.911 171.918 177.9 c 0
 169.538 173.182 169.409 167.892 169.273 162.725 c 2
 169.273 145.455 l 2
 169.273 121.67 169.072 97.875 169.273 74.0909 c 0
 169.404 62.1986 169.727 48.9641 179.511 40.5832 c 0
 185.986 35 194.7 33.5173 202.909 32.5423 c 0
 217.455 30.8073 232.315 30.9091 247 30.9091 c 1
 247 1.12057e-05 l 1
 202 2.08637 157 3.18183 112 2.68319 c 0
 83.6536 2.36047 55.3155 1.31365 27 1.14441e-05 c 1
 27 30.9091 l 1
 43.1418 30.9091 59.65 30.5677 75.6359 33.1573 c 0
 86.27 34.8805 96.0909 38.9668 101.029 49.2109 c 0
 104.24 55.9068 104.521 63.6218 104.67 70.9091 c 2
 104.727 96.8182 l 1
 104.727 196.364 l 1
 104.727 493.636 l 1
 104.727 579.545 l 2
 104.727 588.628 104.922 597.727 104.51 606.818 c 0
 104.192 613.824 103.587 621.08 101.091 627.699 c 0
 100.139 630.259 98.9709 632.943 97.3032 635.135 c 0
 95.1314 637.989 92.8396 640.717 89.8241 642.727 c 0
 82.6977 647.505 74.4905 649.429 66.0909 650.555 c 0
 57.6764 651.683 49.1382 652.033 40.6364 652.192 c 2
 27 652.273 l 1
 27 683.182 l 1
EndSplineSet
EndChar
StartChar: germandbls
Encoding: 29 223 29
Width: 500
Flags: W
TeX: 0 0 0 0
HStem: 5.72205e-06 30.9091<27 86.9216> 399.545 30.91<27 104.727> 682.021 22.8822<225.185 298.041>
VStem: 104.727 67.273<43.3678 399.545 430.455 607.851> 227.75 48.989<314.546 370.544> 362.897 25.4213<491.196 609.576>
Fore
104.727 430.455 m 5
 104.727 533.637 l 6
 104.727 549.063 104.169 564.625 105.636 580 c 4
 108.062 605 115.636 629.958 130.527 650.452 c 4
 135.03 656.671 140.132 662.439 145.749 667.673 c 4
 174.379 694.352 214.198 704.316 252.454 704.903 c 4
 279.261 705.316 306.52 700.303 329.727 686.326 c 4
 351.504 673.182 367.72 652.645 376.942 629.091 c 4
 386.772 603.985 388.629 577.147 388.318 550.455 c 4
 388.091 530.991 386.983 511.364 383.278 492.273 c 4
 379.818 474.401 374.727 454.688 362.315 440.799 c 4
 357.454 435.416 351.626 431.152 344.723 428.893 c 4
 339.426 427.159 333.818 426.818 328.363 426.063 c 4
 322.906 425.241 317.454 424.006 312.454 421.782 c 4
 308.798 420.178 305.182 418.178 302.098 415.706 c 4
 298.085 412.55 294.442 409.001 291.365 404.914 c 4
 279.899 389.683 276.673 369.546 276.739 350.909 c 4
 276.833 324.255 286.545 296.517 309.727 281.364 c 4
 313.268 279.091 317.132 277.273 321.091 275.909 c 4
 327.699 273.607 334.686 272.416 341.545 271.073 c 4
 353.32 268.769 365.182 266.712 376.545 262.724 c 4
 413.818 249.629 442.723 218.993 456.471 182.273 c 4
 466.403 155.748 467.999 126.967 463.928 99.091 c 4
 460.739 77.2597 453.646 55.7761 440.636 37.7274 c 4
 434.629 29.2815 427.425 21.6661 419.258 15.2242 c 4
 399.024 -0.734856 373.364 -8.55349 347.909 -10.4544 c 4
 331.982 -11.5262 315.626 -10.4953 300.636 -4.6044 c 4
 288.674 0.0965061 279.049 7.69332 269.727 16.3638 c 5
 257.909 3.18196 l 6
 255.112 0.205597 252.189 -2.93577 248.803 -5.4544 c 4
 244.715 -8.33259 239.522 -10.5089 234.614 -8.18168 c 4
 230.775 -6.36349 229.012 -2.44304 228.181 1.51651 c 4
 226.694 8.60605 227.454 16.3638 227.454 23.6365 c 6
 227.454 118.182 l 5
 227.454 137.273 l 6
 227.454 141.333 227.332 145.455 227.733 149.501 c 4
 228.249 154.707 229.637 160.157 234.631 162.727 c 4
 241.259 166.3 248.584 162.727 251.545 156.364 c 4
 253.712 151.91 254.105 146.637 254.727 141.817 c 6
 257.84 119.546 l 6
 260.63 100.909 263.923 82.2728 270.182 64.5456 c 4
 274.587 52.0847 280.562 39.9442 289.841 30.3656 c 4
 294.084 25.9856 298.911 22.1978 304.273 19.2919 c 4
 317.734 12.0074 333.895 10.9915 348.818 12.9342 c 4
 360.864 14.5024 372.745 18.2651 382.879 25.0883 c 4
 393.306 32.1092 401.513 41.8992 406.99 53.1819 c 4
 412.233 63.9847 414.876 75.8342 416.079 87.7274 c 4
 417.275 99.5456 417 111.52 414.634 123.182 c 4
 410.449 143.478 399.711 162.273 383.73 175.601 c 4
 378.818 179.635 373.575 183.089 367.909 185.86 c 4
 352 193.604 333.985 195 317 198.902 c 4
 304.727 201.706 293.063 206.131 282.455 212.969 c 4
 248.3 234.986 229.727 274.756 227.75 314.546 c 4
 225.636 355.668 236.272 401.551 271.091 427.105 c 4
 283.073 435.872 297 441.461 311.545 444.345 c 4
 315.911 445.213 320.31 445.746 324.725 446.28 c 4
 330.421 446.969 336.091 447.556 340.944 451.027 c 4
 346.511 455 349.651 461.465 352 467.727 c 4
 356.348 479.189 358.574 491.528 360.117 503.636 c 4
 362 518.841 362.724 534.227 362.873 549.546 c 4
 363.212 584.315 360.182 621.905 336.496 649.454 c 4
 318.091 670.802 290.998 680.666 263.364 681.918 c 4
 244.273 682.727 224.637 678.831 208.818 667.696 c 4
 196.067 658.636 186.851 645.866 181.269 631.364 c 4
 170.832 604.248 172 574.012 172 545.455 c 6
 172 427.273 l 5
 172 5.72205e-06 l 5
 149.272 2.34955 l 5
 98.8182 2.38455 l 5
 27 5.72205e-06 l 5
 27 30.9091 l 5
 42.5677 30.9091 58.3636 30.6877 73.8182 32.8891 c 4
 82.8968 34.1823 92 36.6723 97.9091 44.1932 c 4
 105.182 53.4132 104.68 66.17 104.721 77.2727 c 6
 104.727 141.364 l 5
 104.727 399.545 l 5
 27 399.545 l 5
 27 430.455 l 5
 104.727 430.455 l 5
EndSplineSet
EndChar
StartChar: Dcroat
Encoding: 30 272 30
Width: 764
Flags: W
TeX: 0 0 0 0
HStem: -1.14441e-05 30.9092<34 114.86 233.075 423.517> 319.545 30.909<36.6786 158.594 223.546 403.989> 652.273 30.909<34 114.86 233.075 422.146>
VStem: 136.705 86.841<47.2948 319.545 350.454 629.284>
Fore
34 683.182 m 1
 33.9999 683.182 l 1
 314.909 683.182 l 1
 379.454 683.182 l 2
 399.388 683.182 419.21 683.267 439 680.455 c 0
 477.511 675.134 514.581 661.211 547.636 640.82 c 0
 570.818 626.515 592.111 608.973 610.703 589.064 c 0
 707.636 485.238 734.18 322.964 678.413 192.727 c 0
 669.267 171.364 657.995 150.875 644.696 131.818 c 0
 630.671 111.72 614.454 93.1291 596.27 76.6964 c 0
 574.79 57.2727 550.568 40.8113 524.455 28.2864 c 0
 496.414 14.8364 466.25 5.83817 435.364 2.09272 c 0
 416.727 -0.160921 398.091 -1.14441e-05 379.455 -1.14441e-05 c 2
 316.273 -1.14441e-05 l 1
 34 -1.14441e-05 l 1
 34 30.9091 l 1
 55.0341 30.9091 76.2363 30.6786 97.1818 32.905 c 0
 107.636 34.0223 119.173 35.5618 127.039 43.345 c 0
 135.818 52.0423 136.586 64.2686 136.705 75.9091 c 2
 136.727 118.636 l 1
 136.727 319.545 l 1
 110.228 319.545 83.6777 319.064 57.1818 319.545 c 0
 51.6223 319.691 46.6895 320.092 41.5759 322.36 c 0
 40.1232 323.005 39.1345 324.314 38.0277 325.375 c 0
 36.5632 326.777 36.0918 328.9 35.3636 330.699 c 0
 34.7895 332.231 34.7873 334.261 34.8663 335.878 c 0
 34.9091 337.356 35.0795 339.212 35.7477 340.561 c 0
 36.6082 342.273 37.2582 344.357 38.8609 345.619 c 0
 40.0791 346.578 41.1959 347.727 42.6363 348.295 c 0
 47.9391 350.136 53.0259 350.373 58.5454 350.436 c 0
 84.5995 350.737 110.672 350.454 136.727 350.454 c 1
 136.727 561.364 l 1
 136.705 607.273 l 2
 136.586 618.913 135.818 631.14 127.039 639.837 c 0
 119.173 647.62 107.636 649.091 97.1818 650.277 c 0
 76.2364 652.503 55.0341 652.273 34 652.273 c 1
 34 683.182 l 1
223.545 319.545 m 1
 223.546 319.546 l 1
 223.546 115.909 l 2
 223.546 99.5455 223.305 83.1732 223.546 66.8182 c 0
 223.752 57.7273 224 47.6296 230.463 40.4546 c 0
 239 31.0942 254.083 31.2551 265.818 30.9973 c 0
 293.825 30.3819 321.896 30.9092 349.909 30.9092 c 0
 364.141 30.9092 378.431 30.5601 392.636 31.5896 c 0
 410.209 32.8632 427.633 36.071 444.455 41.3242 c 0
 463.355 47.2264 481.44 55.5751 498.091 66.301 c 0
 511.674 75.0001 524.289 85.3323 535.552 96.9182 c 0
 543.86 105.455 551.416 114.727 558.172 124.546 c 0
 600.952 186.716 606.727 264.988 606.727 338.182 c 0
 606.705 414.057 599.654 495.563 554.744 559.546 c 0
 547.996 569.091 540.501 578.182 532.306 586.67 c 0
 521.172 598.101 508.73 608.287 495.364 617 c 0
 479.298 627.474 461.727 635.762 443.545 641.635 c 0
 427.182 646.898 410.221 650.206 393.091 651.531 c 0
 378.738 652.642 364.292 652.273 349.909 652.273 c 0
 321.896 652.273 293.824 652.727 265.818 652.184 c 0
 254.083 651.926 239 652.088 230.463 642.654 c 0
 223.927 635.439 223.731 625.097 223.545 615.909 c 0
 223.314 598.636 223.545 581.358 223.545 564.091 c 2
 223.545 350.454 l 1
 368.545 350.454 l 1
 377.182 350.454 l 1
 389.907 350.418 l 1
 403.998 348.305 l 1
 407.941 345.63 l 1
 411.477 339.741 l 1
 412.16 335 l 1
 411.46 330.28 l 1
 407.924 324.42 l 1
 403.989 321.749 l 1
 389.453 319.545 l 1
 377.182 319.545 l 1
 368.545 319.545 l 1
 223.545 319.545 l 1
EndSplineSet
EndChar
StartChar: Pi
Encoding: 31 928 31
Width: 750
Flags: W
TeX: 0 0 0 0
HStem: -0.000114679 30.9091<33 44.0322 317.04 328 421.182 432.214 705.046 716.182> 649.545 30.91<33 44.105 225.273 523.909 705.15 716.182>
VStem: 135.727 89.546<73.6362 74.5453 91.3635 649.545> 523.909 89.545<72.7272 98.1817 175.454 649.545>
Fore
33 680.455 m 1
 126.636 678.115 l 1
 185.727 677.727 l 1
 234.364 680.418 l 1
 283.455 680.454 l 1
 375.273 680.454 l 1
 465.727 680.454 l 1
 514.818 680.418 l 1
 563.455 677.727 l 1
 622.545 678.115 l 1
 716.182 680.455 l 1
 716.182 649.545 l 1
 694.117 649.545 671.755 649.931 649.818 647.188 c 0
 638.084 645.72 626.182 642.926 619.327 632.425 c 0
 614.307 624.811 613.665 615.67 613.454 606.818 c 2
 613.454 589.091 l 1
 613.454 497.273 l 1
 613.454 175.454 l 1
 613.454 90.4544 l 1
 613.454 72.7272 l 2
 613.706 64.5053 614.364 56.0599 618.796 48.8726 c 0
 625.511 37.9144 637.402 34.8553 649.364 33.3231 c 0
 671.439 30.4544 693.909 30.909 716.182 30.909 c 1
 716.182 -0.000114679 l 1
 655.142 2.08579 594.079 3.1817 533 2.69579 c 0
 495.719 2.35761 458.442 1.27307 421.182 -0.000114441 c 1
 421.182 30.909 l 1
 443.246 30.909 465.609 30.4544 487.545 33.2662 c 0
 499.095 34.7108 510.727 37.4122 517.76 47.6131 c 0
 523.194 55.5612 523.737 65.2331 523.874 74.5453 c 2
 523.909 98.1817 l 1
 523.909 212.273 l 1
 523.909 649.545 l 1
 225.273 649.545 l 1
 225.273 212.273 l 1
 225.273 98.1817 l 1
 225.273 74.5453 l 2
 225.445 65.2331 225.988 55.5612 231.422 47.6131 c 0
 238.455 37.2726 250.401 34.6385 262.091 33.1817 c 0
 283.888 30.5499 306.081 30.909 328 30.909 c 1
 328 -0.000118494 l 1
 266.96 2.08579 205.897 3.1817 144.818 2.69579 c 0
 107.537 2.35761 70.26 1.27306 33 -0.000118256 c 1
 33 30.909 l 1
 55.0645 30.909 77.4268 30.4544 99.3636 33.2662 c 0
 111.098 34.734 122.93 37.5281 129.818 48.0294 c 0
 134.818 55.6426 135.517 64.784 135.68 73.6362 c 2
 135.727 91.3635 l 1
 135.727 183.182 l 1
 135.727 505 l 1
 135.727 590 l 1
 135.665 607.727 l 2
 135.476 615.909 134.79 624.394 130.385 631.582 c 0
 123.67 642.54 111.78 645.599 99.8182 647.131 c 0
 77.7432 649.959 55.21 649.545 33 649.545 c 1
 33 680.455 l 1
EndSplineSet
EndChar
StartChar: uni0290
Encoding: 32 656 32
Width: 444
Flags: W
TeX: 0 0 0 0
HStem: -205 23<404.7 484.092> 0 25<112 270> 408 22<108 314>
VStem: 41 26<270.609 430.372> 357 25<-168.307 0> 376 26<95.0967 187> 382 3<0 3> 462 92<-148.4 -89.6>
Fore
458 -205 m 0xf9
 417 -205 357 -181 357 -39 c 2
 357 0 l 1xf9
 53 0 l 2
 44 0 28 -1 28 14 c 0
 28 23 35 31 40 38 c 2
 314 408 l 1
 230 408 l 2
 108 408 75 398 67 269 c 1
 41 269 l 1
 52 430 l 1
 372 430 l 2
 379 430 397 432 397 417 c 0
 397 408 390 400 386 394 c 2
 112 25 l 1
 200 25 l 2
 270 25 318 27 347 68 c 0
 368 98 372 144 376 187 c 1
 402 187 l 1xf5
 385 0 l 1xf3
 382 0 l 1
 382 -37 l 2
 382 -138.005 413 -182 458 -182 c 0
 471 -182 486 -178 501 -170 c 1
 473 -165 462 -143 462 -125 c 0
 462 -96 485 -80 508 -80 c 0
 533 -80 554 -98 554 -126 c 0
 554 -165 515 -205 458 -205 c 0xf9
EndSplineSet
EndChar
StartChar: OE
Encoding: 33 338 33
Width: 1008
Flags: W
TeX: 0 0 0 0
HStem: -17 51<274 402> -0 56<492.5 964> 335 53<552 920> 641 54<508 949> 661 50<269 417>
VStem: 16 69<240.5 447> 482 70<56 641>
Fore
565 -0 m 2x76
 420 0 440 -17 364 -17 c 0
 184 -17 16 135 16 346 c 0
 16 548 175 711 363 711 c 0xae
 415 711 459 697 508 695 c 1
 949 695 l 1
 949 641 l 1
 552 641 l 1
 552 388 l 1
 920 388 l 1
 920 335 l 1
 552 335 l 1
 552 56 l 1
 964 56 l 1
 964 -0 l 1
 565 -0 l 2x76
482 479 m 2
 482 619 467 661 367 661 c 0
 203 661 85 519 85 360 c 0
 85 194 198 34 368 34 c 0
 474 35 473 81 481 164 c 6
 482 221 l 1
 483 240 l 1
 483 450 l 1
 482 479 l 2
EndSplineSet
EndChar
StartChar: uni1FA1
Encoding: 34 8097 34
Width: 700
Flags: W
TeX: 0 0 0 0
HStem: -8 52<128.8 304.6 396 571.5>
VStem: 41 65<85.6 262.4> 311 78<617 695> 317 65<-220.083 -64 162.519 255.781> 350 39<536 575> 593 65<88.2 342.7>
Fore
382 -185 m 6xd4
 382 -189 387 -232 350 -232 c 4xcc
 339 -232 329 -227 323 -218 c 4
 317 -210 317 -198 317 -186 c 6
 317 -64 l 5
 382 -64 l 5
 382 -185 l 6xd4
311 630 m 5xe4
 311 695 l 5
 389 695 l 5xe4
 389 616 l 5
 366 616 l 5
 389 536 l 5
 350 536 l 5xcc
 317 603 l 5xd4
 312 617 l 5
 311 630 l 5xe4
41 200 m 0
 41 248 51 352 173 472 c 1
 250 472 l 1
 204 423 106 328 106 200 c 0
 106 112 148 44 212 44 c 0
 284 44 314 121 319 179 c 0
 321 199 320 219 320 239 c 2
 320 300 l 1
 379 300 l 1
 379 238 l 2
 379 219 378 199 380 179 c 0
 385 118 417 44 487 44 c 0
 552 44 593 114 593 200 c 0
 593 328 495 423 449 472 c 1
 526 472 l 1
 597 402 657 310 658 201 c 0
 657 80 582 -8 487 -8 c 0
 404 -8 364 56 349 82 c 1
 327 40 283 -7 211 -8 c 0
 115 -7 42 82 41 200 c 0
EndSplineSet
EndChar
StartChar: nenearrows.neg
Encoding: 35 -1 35
Width: 1179
Flags: W
TeX: 0 0 0 0
HStem: 356 60<750 849> 559 60<511 654.445>
VStem: 689 61<416 515.872> 890 64<169.343 306.21>
Back
529.35 680.138 m 29
 468.69 -169.04 l 29
EndSplineSet
Fore
760 668 m 0
 766 671 777 671 785 667 c 0
 791 664 796 660 799 653 c 0
 801 649 801 647 801 640 c 0
 801 629 801 629 791 613 c 0
 778 593 767 567 760 542 c 0
 753 512 750 482 750 432 c 2
 750 416 l 1
 766 416 l 2
 794 416 831 418 844 420 c 0
 870 424 897 432 918 441 c 0
 929 446 938 451 955 462 c 0
 963 467 968 468 976 468 c 0
 992 467 1004 454 1004 438 c 0
 1004 429 1003 426 995 413 c 0
 971 376 957 331 954 285 c 0
 952 251 952 218 953 199 c 0
 954 183 954 180 953 176 c 0
 948 160 931 151 916 154 c 0
 905 157 898 164 894 174 c 0
 891 182 890 204 890 242 c 0
 890 268 890 279 891 292 c 0
 892 301 893 310 893 310 c 2
 893 311 846 266 763 182 c 2
 633 52 l 1
 660 -6 l 2
 680 -49 687 -66 688 -69 c 1
 689 -81 680 -91 667 -91 c 0
 661 -91 656 -89 652 -85 c 1
 651 -83 622 -23 605 15 c 2
 602 21 l 1
 514 -66 l 2
 416 -164 422 -159 408 -159 c 0
 402 -159 399 -158 394 -156 c 0
 388 -153 383 -149 380 -142 c 1
 376 -136 377 -121 380 -115 c 0
 381 -112 412 -81 478 -14 c 2
 574 82 l 1
 527 182 l 2
 501 237 478 286 476 290 c 2
 473 297 l 1
 348 173 l 2
 261 86 222 47 219 46 c 0
 215 44 213 44 206 44 c 0
 198 44 196 44 192 46 c 0
 186 49 179 57 177 63 c 0
 174 70 175 82 178 88 c 0
 180 91 217 129 313 225 c 2
 445 358 l 1
 418 417 l 2
 392 470 390 476 390 481 c 0
 390 489 394 495 401 499 c 0
 407 502 416 501 422 498 c 1
 427 494 426 496 454 437 c 0
 466 411 475 390 476 390 c 1
 476 389 515 427 562 474 c 0
 637 549 646 559 644 559 c 0
 642 559 634 558 626 557 c 0
 606 555 548 555 527 557 c 0
 509 559 503 560 496 568 c 0
 482 583 486 607 505 617 c 2
 511 620 l 1
 525 619 l 2
 569 617 628 619 648 623 c 0
 685 630 720 643 746 660 c 0
 751 663 757 667 760 668 c 0
689 490 m 0
 690 499 690 508 690 510 c 2
 690 514 l 1
 597 421 l 1
 504 329 l 5
 554 222 l 2
 581 163 604 114 604 114 c 1
 605 113 660 167 727 234 c 2
 849 356 l 1
 837 356 l 1
 831 355 818 355 809 354 c 0
 782 352 724 354 712 357 c 0
 703 359 693 369 691 378 c 0
 688 391 686 457 689 490 c 0
EndSplineSet
EndChar
StartChar: uni04FF
Encoding: 36 1279 36
Width: 607
Flags: W
TeX: 0 0 0 0
HStem: -0 36<22 28 217 223 355 361 576.5 592> 228 33<59 279 399 628> 409 36<95 113 326 332 438 444 531.5 639>
Back
12 320.61 m 29
 649 224.094 l 29
EndSplineSet
Fore
95 409 m 5
 101 445 l 5
 154 442 185 442 206 442 c 4
 248 442 290 443 332 445 c 5
 326 409 l 5
 309 408 288 406 288 398 c 4
 288 388 334 327 362 283 c 5
 464 379 471 381 471 392 c 4
 471 404 451 408 438 409 c 5
 444 445 l 5
 479 443 514 442 549 442 c 4
 567 442 594 442 639 445 c 5
 633 409 l 5
 555 408 541 390 523 374 c 6
 404 261 l 5
 628 261 l 5
 623 228 l 5
 399 228 l 5
 526 42 522 46 531 41 c 4
 541 36 561 36 592 36 c 5
 585 -0 l 5
 550 2 515 3 478 3 c 4
 437 3 396 2 355 -0 c 5
 361 36 l 5
 388 37 398 40 398 47 c 4
 398 54 350 124 314 176 c 5
 226 93 190 67 190 52 c 4
 190 49 193 46 197 43 c 4
 205 38 215 37 223 36 c 5
 217 -0 l 5
 182 2 147 3 112 3 c 4
 94 3 67 3 22 -0 c 5
 28 36 l 5
 107 37 119.896 54.1102 140 73 c 6
 289 213 l 5
 289 214 l 5
 279 228 l 5
 59 228 l 5
 65 261 l 5
 257 261 l 5
 162 400 165 398 155 404 c 4
 145 409 131 409 95 409 c 5
EndSplineSet
EndChar
StartChar: H
Encoding: 37 72 37
Width: 708
Flags: W
TeX: 0 0 0 0
HStem: 0 21G<98 168 539 609> 335 53<250 610>
VStem: 98 70<0 14.1549 0 70> 539 70<0 14.0878 0 70> 687 70<680.912 695 625 695>
Fore
622 388 m 1
 687 695 l 1
 757 695 l 1
 609 0 l 1
 539 0 l 1
 610 335 l 1
 239 335 l 1
 168 0 l 1
 98 0 l 1
 245 694 l 1
 246 695 l 1
 316 695 l 1
 250 388 l 1
 622 388 l 1
EndSplineSet
EndChar
StartChar: circleplus
Encoding: 38 8853 38
Width: 1000
Flags: W
TeX: 0 0 0 0
HStem: 360 54<81.9761 405 459 776.024>
VStem: 405 54<42.9761 360 414 737.024>
Fore
42 390 m 0
 42 603.624 215.376 777 429 777 c 0
 642.624 777 816 603.624 816 390 c 0
 816 176.376 642.624 3 429 3 c 0
 215.376 3 42 176.376 42 390 c 0
405 737.485 m 1
 231.85 725.683 93.3172 587.15 81.5154 414 c 1
 405 414 l 1
 405 737.485 l 1
405 42.5154 m 1
 405 360 l 1
 81.9761 360 l 1
 96.5296 189.659 233.854 54.1806 405 42.5154 c 1
459 42.9761 m 1
 627.346 57.3591 761.641 191.654 776.024 360 c 1
 459 360 l 1
 459 42.9761 l 1
459 737.024 m 1
 459 414 l 1
 776.485 414 l 1
 764.819 585.146 629.341 722.47 459 737.024 c 1
EndSplineSet
EndChar
StartChar: circumflex
Encoding: 39 710 39
Width: 532
Flags: W
TeX: 0 0 0 0
HStem: 369 93<175.5 268.5> 549 93<321 414 30 123>
Fore
414 642 m 29
 414 549 l 29
 222 369 l 29
 30 549 l 29
 30 642 l 29
 222 462 l 29
 414 642 l 29
EndSplineSet
EndChar
StartChar: uni25BE
Encoding: 40 9662 40
Width: 532
Flags: W
TeX: 0 0 0 0
HStem: 369 180<30 414>
Fore
30 549 m 29
 414 549 l 25
 222 369 l 25
 30 549 l 29
EndSplineSet
EndChar
StartChar: check
Encoding: 41 10003 41
Width: 835
Flags: W
TeX: 0 0 0 0
HStem: 0 93<175.5 268.5> 180 93<30 123> 540 93<705 798>
Fore
798 633 m 13
 222 93 l 29
 30 273 l 29
 30 180 l 29
 222 0 l 29
 798 540 l 21
 798 633 l 13
EndSplineSet
EndChar
StartChar: check.alt
Encoding: 42 -1 42
Width: 835
Flags: W
TeX: 0 0 0 0
HStem: 0 93<175.5 268.5>
VStem: 30 99.2<80.8 180> 698.8 99.2<440.8 540>
Fore
698.8 540 m 5
 222 93 l 1
 129.2 180 l 25
 30 180 l 9
 222 0 l 25
 798 540 l 17
 698.8 540 l 5
EndSplineSet
EndChar
